<svg height="512" viewBox="0 0 512 512" width="512" xmlns="http://www.w3.org/2000/svg"><g id="flat"><path d="m332.8 152-44.8-24h-64l-43.578 21.789a8 8 0 0 0 -4.422 7.155v51.056h32v72h96v-72h32v-49.6a8 8 0 0 0 -3.2-6.4z" fill="#eaeae8"/><path d="m208 192h96v96h-96z" fill="#0296e5"/><path d="m24 280h464v96h-464z" fill="#834b10"/><path d="m176 280h176v96h-176z" fill="#55300b"/><path d="m216 132v60h-8v-56z" fill="#026ca2"/><path d="m304 136.57v55.43h-8v-59.71z" fill="#026ca2"/><path d="m24 376h464v32h-464z" fill="#683b0d"/><path d="m56 248h88a0 0 0 0 1 0 0v46a18 18 0 0 1 -18 18h-52a18 18 0 0 1 -18-18v-46a0 0 0 0 1 0 0z" fill="#cbcbcb"/><path d="m48 336v-16l8-8h16v24z" fill="#eaeae8"/><path d="m40 408h432v64h-432z" fill="#55300b"/><g fill="#f7ba61"><path d="m133 224a8 8 0 0 1 -8-8 26.771 26.771 0 0 1 4.027-14.589 12.518 12.518 0 0 0 0-13.491 26.764 26.764 0 0 1 -4.027-14.588 8 8 0 0 1 16 0 11.255 11.255 0 0 0 1.973 6.745 28.44 28.44 0 0 1 0 29.178 11.253 11.253 0 0 0 -1.973 6.745 8 8 0 0 1 -8 8z"/><path d="m101 224a8 8 0 0 1 -8-8 26.771 26.771 0 0 1 4.027-14.589 12.518 12.518 0 0 0 0-13.491 26.764 26.764 0 0 1 -4.027-14.588 8 8 0 0 1 16 0 11.255 11.255 0 0 0 1.973 6.745 28.44 28.44 0 0 1 0 29.178 11.253 11.253 0 0 0 -1.973 6.745 8 8 0 0 1 -8 8z"/><path d="m69 224a8 8 0 0 1 -8-8 26.771 26.771 0 0 1 4.027-14.589 12.518 12.518 0 0 0 0-13.491 26.764 26.764 0 0 1 -4.027-14.588 8 8 0 0 1 16 0 11.255 11.255 0 0 0 1.973 6.745 28.44 28.44 0 0 1 0 29.178 11.253 11.253 0 0 0 -1.973 6.745 8 8 0 0 1 -8 8z"/></g><path d="m384 304h72a0 0 0 0 1 0 0 32 32 0 0 1 -32 32h-8a32 32 0 0 1 -32-32 0 0 0 0 1 0 0z" fill="#eaeae8"/><path d="m456 304a24.016 24.016 0 0 0 -32-22.634l-4 4.634 4 18z" fill="#02a437"/><rect fill="#fdc9a6" height="88" rx="32" width="64" x="224" y="72"/><path d="m176 208v40l32 40v16l16 16 24-16v-16l-40-48v-32z" fill="#fdc9a6"/><path d="m336 208v56l-32 80h-40v-16l8-24h16l16-56v-40z" fill="#fdc9a6"/><path d="m224 64h64v46.4h-64z" fill="#eaeae8"/><path d="m288 64v16a15.96 15.96 0 0 1 -10.99-4.39 24.009 24.009 0 0 1 -42.02 0 15.96 15.96 0 0 1 -10.99 4.39v-16z" fill="#cbcbcb"/><path d="m288 40a15.927 15.927 0 0 0 -10.992 4.394 24 24 0 0 0 -42.016 0 16 16 0 1 0 0 23.212 24 24 0 0 0 42.016 0 15.994 15.994 0 1 0 10.992-27.606z" fill="#eaeae8"/><path d="m408 272a16 16 0 0 1 16 16v16a0 0 0 0 1 0 0h-32a0 0 0 0 1 0 0v-16a16 16 0 0 1 16-16z" fill="#fd7422"/><path d="m72 325.481h56v10.519h-56z" fill="#55300b"/><path d="m152 336v-16l-8-8h-16v24z" fill="#eaeae8"/><path d="m243.556 306.963 44.444 37.037h-40l-28.255-21.191z" fill="#cbcbcb"/></g></svg>