<svg id="Layer_1" enable-background="new 0 0 512 512" height="512" viewBox="0 0 512 512" width="512" xmlns="http://www.w3.org/2000/svg"><g><path d="m389.844 193.369-44.15 35.643c14.333 26.217 47.205 35.852 73.422 21.519s35.852-47.205 21.519-73.422z" fill="#80391b"/><path d="m367.213 155.59c-26.217 14.333-35.852 47.205-21.519 73.422l94.941-51.904c-14.333-26.217-47.205-35.851-73.422-21.518z" fill="#e64937"/><path d="m496.957 399.988-98.495-48.676-84.423-138.436 32.81-89.706 83.163-71.359c11.275-9.675 12.572-26.658 2.897-37.934-9.676-11.275-26.659-12.572-37.934-2.897l-88.495 75.935c-3.496 3-6.164 6.849-7.746 11.175l-40.152 109.781c-.073.201-.135.402-.204.604l-225.425 122.321 136.665 83.953 150.651-82.36 37.784 55.134c2.604 3.8 6.141 6.868 10.271 8.909l104.794 51.789c13.372 6.608 29.479 1.069 36.035-12.198 6.584-13.319 1.123-29.452-12.196-36.035z" fill="#80391b"/><g><path d="m471.082 431.796 40.918-75.71v-54.831c-32.002 0-32.002 21.933-64.004 21.933s-32.002-21.933-64.004-21.933c-32.001 0-32.001 21.933-64.001 21.933s-32-21.933-63.999-21.933c-31.998 0-31.998 21.933-63.996 21.933-31.999 0-31.999-21.933-63.999-21.933s-32 21.933-64 21.933c-31.998 0-31.998-21.933-63.997-21.933v54.831l80.316 75.71z" fill="#73c8f0"/><path d="m512 507.506v-151.42c-32.002 0-32.002 21.933-64.004 21.933s-32.002-21.933-64.004-21.933c-32.001 0-32.001 21.933-64.001 21.933s-32-21.933-63.999-21.933c-31.998 0-31.998 21.933-63.996 21.933-31.999 0-31.999-21.933-63.999-21.933s-32 21.933-64 21.933c-31.998 0-31.998-21.933-63.997-21.933v151.42z" fill="#afe6ff"/></g></g></svg>